<svg xmlns="http://www.w3.org/2000/svg" viewBox="0 0 256 256">
  <defs>
    <linearGradient id="g" x1="0" y1="0" x2="0" y2="1">
      <stop offset="0" stop-color="#22c55e"/>
      <stop offset="1" stop-color="#0ea5e9"/>
    </linearGradient>
  </defs>
  <rect x="20" y="20" width="216" height="216" rx="48" fill="#0b1220"/>
  <path d="M168 74c-18-14-42-14-58-4-10 6-16 15-16 25 0 14 10 23 30 28l18 4c28 6 44 22 44 44 0 18-10 34-28 44-22 12-50 10-70-6l10-16c16 12 36 14 52 6 10-6 16-15 16-26 0-14-10-23-30-28l-18-4c-28-6-44-22-44-44 0-18 10-33 28-43 22-12 50-10 70 6l-10 14z"
        fill="url(#g)"/>
  <circle cx="166" cy="72" r="7" fill="#e5e7eb"/>
  <circle cx="166" cy="72" r="3" fill="#111827"/>
</svg>
